<svg width="120" height="120" viewBox="0 0 120 120" fill="none" xmlns="http://www.w3.org/2000/svg">
<g clip-path="url(#clip0_164_149)">
<path d="M67.5002 45H71.508C76.6877 53.9766 86.3908 60 97.5002 60C100.078 60 102.61 59.6719 105 59.0625V60V67.5V112.5C105 116.648 101.649 120 97.5002 120C93.3517 120 90.0002 116.648 90.0002 112.5V79.5L58.1252 105H71.2502C75.3986 105 78.7502 108.352 78.7502 112.5C78.7502 116.648 75.3986 120 71.2502 120H37.5002C25.0783 120 15.0002 109.922 15.0002 97.5V45.1172C15.0002 41.3438 12.1877 38.1328 8.43768 37.6641L6.58612 37.4297C2.46112 36.9375 -0.445131 33.1875 0.0470565 29.0625C0.539244 24.9375 4.31268 22.0312 8.41424 22.5469L10.2658 22.7812C21.5158 24.1875 29.9767 33.75 29.9767 45.1172V65.1094C38.0392 52.9922 51.8205 45 67.4767 45H67.5002ZM105 51.2109C102.656 52.0312 100.125 52.5 97.5002 52.5C90.8439 52.5 84.8439 49.5938 80.7189 45C79.8517 44.0391 79.0783 43.0078 78.3986 41.9062C76.2424 38.4375 75.0002 34.3594 75.0002 30V7.5V2.8125V2.50781C75.0002 1.125 76.1017 0.0234375 77.4846 0H77.5314C78.3049 0 79.0314 0.375 79.5002 0.984375V1.00781L82.5002 4.99219L88.8752 13.5L90.0002 15H105L106.125 13.5L112.5 4.99219L115.5 1.00781V0.984375C115.969 0.375 116.695 0 117.469 0H117.516C118.899 0.0234375 120 1.125 120 2.50781V2.8125V7.5V30C120 34.0547 118.922 37.875 117.047 41.1562C114.399 45.7969 110.11 49.4062 105 51.2109ZM93.7502 30C93.7502 27.9375 92.0627 26.25 90.0002 26.25C87.9377 26.25 86.2502 27.9375 86.2502 30C86.2502 32.0625 87.9377 33.75 90.0002 33.75C92.0627 33.75 93.7502 32.0625 93.7502 30ZM105 33.75C107.063 33.75 108.75 32.0625 108.75 30C108.75 27.9375 107.063 26.25 105 26.25C102.938 26.25 101.25 27.9375 101.25 30C101.25 32.0625 102.938 33.75 105 33.75Z" fill="#F8F8FF"/>
</g>
<defs>
<clipPath id="clip0_164_149">
<rect width="120" height="120" fill="white"/>
</clipPath>
</defs>
</svg>
