<svg width="152" height="40" viewBox="0 0 152 40" fill="none" xmlns="http://www.w3.org/2000/svg">
<path d="M111.543 30.5742H113.793C113.676 31.6523 113.367 32.6172 112.867 33.4688C112.367 34.3203 111.66 34.9961 110.746 35.4961C109.832 35.9883 108.691 36.2344 107.324 36.2344C106.324 36.2344 105.414 36.0469 104.594 35.6719C103.781 35.2969 103.082 34.7656 102.496 34.0781C101.91 33.3828 101.457 32.5508 101.137 31.582C100.824 30.6055 100.668 29.5195 100.668 28.3242V26.625C100.668 25.4297 100.824 24.3477 101.137 23.3789C101.457 22.4023 101.914 21.5664 102.508 20.8711C103.109 20.1758 103.832 19.6406 104.676 19.2656C105.52 18.8906 106.469 18.7031 107.523 18.7031C108.812 18.7031 109.902 18.9453 110.793 19.4297C111.684 19.9141 112.375 20.5859 112.867 21.4453C113.367 22.2969 113.676 23.2852 113.793 24.4102H111.543C111.434 23.6133 111.23 22.9297 110.934 22.3594C110.637 21.7812 110.215 21.3359 109.668 21.0234C109.121 20.7109 108.406 20.5547 107.523 20.5547C106.766 20.5547 106.098 20.6992 105.52 20.9883C104.949 21.2773 104.469 21.6875 104.078 22.2188C103.695 22.75 103.406 23.3867 103.211 24.1289C103.016 24.8711 102.918 25.6953 102.918 26.6016V28.3242C102.918 29.1602 103.004 29.9453 103.176 30.6797C103.355 31.4141 103.625 32.0586 103.984 32.6133C104.344 33.168 104.801 33.6055 105.355 33.9258C105.91 34.2383 106.566 34.3945 107.324 34.3945C108.285 34.3945 109.051 34.2422 109.621 33.9375C110.191 33.6328 110.621 33.1953 110.91 32.625C111.207 32.0547 111.418 31.3711 111.543 30.5742ZM124.023 33.832V27.3047C124.023 26.8047 123.922 26.3711 123.719 26.0039C123.523 25.6289 123.227 25.3398 122.828 25.1367C122.43 24.9336 121.938 24.832 121.352 24.832C120.805 24.832 120.324 24.9258 119.91 25.1133C119.504 25.3008 119.184 25.5469 118.949 25.8516C118.723 26.1562 118.609 26.4844 118.609 26.8359H116.441C116.441 26.3828 116.559 25.9336 116.793 25.4883C117.027 25.043 117.363 24.6406 117.801 24.2812C118.246 23.9141 118.777 23.625 119.395 23.4141C120.02 23.1953 120.715 23.0859 121.48 23.0859C122.402 23.0859 123.215 23.2422 123.918 23.5547C124.629 23.8672 125.184 24.3398 125.582 24.9727C125.988 25.5977 126.191 26.3828 126.191 27.3281V33.2344C126.191 33.6562 126.227 34.1055 126.297 34.582C126.375 35.0586 126.488 35.4688 126.637 35.8125V36H124.375C124.266 35.75 124.18 35.418 124.117 35.0039C124.055 34.582 124.023 34.1914 124.023 33.832ZM124.398 28.3125L124.422 29.8359H122.23C121.613 29.8359 121.062 29.8867 120.578 29.9883C120.094 30.082 119.688 30.2266 119.359 30.4219C119.031 30.6172 118.781 30.8633 118.609 31.1602C118.438 31.4492 118.352 31.7891 118.352 32.1797C118.352 32.5781 118.441 32.9414 118.621 33.2695C118.801 33.5977 119.07 33.8594 119.43 34.0547C119.797 34.2422 120.246 34.3359 120.777 34.3359C121.441 34.3359 122.027 34.1953 122.535 33.9141C123.043 33.6328 123.445 33.2891 123.742 32.8828C124.047 32.4766 124.211 32.082 124.234 31.6992L125.16 32.7422C125.105 33.0703 124.957 33.4336 124.715 33.832C124.473 34.2305 124.148 34.6133 123.742 34.9805C123.344 35.3398 122.867 35.6406 122.312 35.8828C121.766 36.1172 121.148 36.2344 120.461 36.2344C119.602 36.2344 118.848 36.0664 118.199 35.7305C117.559 35.3945 117.059 34.9453 116.699 34.3828C116.348 33.8125 116.172 33.1758 116.172 32.4727C116.172 31.793 116.305 31.1953 116.57 30.6797C116.836 30.1562 117.219 29.7227 117.719 29.3789C118.219 29.0273 118.82 28.7617 119.523 28.582C120.227 28.4023 121.012 28.3125 121.879 28.3125H124.398ZM132.836 36H130.668V21.9844C130.668 21.0703 130.832 20.3008 131.16 19.6758C131.496 19.043 131.977 18.5664 132.602 18.2461C133.227 17.918 133.969 17.7539 134.828 17.7539C135.078 17.7539 135.328 17.7695 135.578 17.8008C135.836 17.832 136.086 17.8789 136.328 17.9414L136.211 19.7109C136.047 19.6719 135.859 19.6445 135.648 19.6289C135.445 19.6133 135.242 19.6055 135.039 19.6055C134.578 19.6055 134.18 19.6992 133.844 19.8867C133.516 20.0664 133.266 20.332 133.094 20.6836C132.922 21.0352 132.836 21.4688 132.836 21.9844V36ZM135.531 23.3203V24.9844H128.664V23.3203H135.531ZM142.926 36.2344C142.043 36.2344 141.242 36.0859 140.523 35.7891C139.812 35.4844 139.199 35.0586 138.684 34.5117C138.176 33.9648 137.785 33.3164 137.512 32.5664C137.238 31.8164 137.102 30.9961 137.102 30.1055V29.6133C137.102 28.582 137.254 27.6641 137.559 26.8594C137.863 26.0469 138.277 25.3594 138.801 24.7969C139.324 24.2344 139.918 23.8086 140.582 23.5195C141.246 23.2305 141.934 23.0859 142.645 23.0859C143.551 23.0859 144.332 23.2422 144.988 23.5547C145.652 23.8672 146.195 24.3047 146.617 24.8672C147.039 25.4219 147.352 26.0781 147.555 26.8359C147.758 27.5859 147.859 28.4062 147.859 29.2969V30.2695H138.391V28.5H145.691V28.3359C145.66 27.7734 145.543 27.2266 145.34 26.6953C145.145 26.1641 144.832 25.7266 144.402 25.3828C143.973 25.0391 143.387 24.8672 142.645 24.8672C142.152 24.8672 141.699 24.9727 141.285 25.1836C140.871 25.3867 140.516 25.6914 140.219 26.0977C139.922 26.5039 139.691 27 139.527 27.5859C139.363 28.1719 139.281 28.8477 139.281 29.6133V30.1055C139.281 30.707 139.363 31.2734 139.527 31.8047C139.699 32.3281 139.945 32.7891 140.266 33.1875C140.594 33.5859 140.988 33.8984 141.449 34.125C141.918 34.3516 142.449 34.4648 143.043 34.4648C143.809 34.4648 144.457 34.3086 144.988 33.9961C145.52 33.6836 145.984 33.2656 146.383 32.7422L147.695 33.7852C147.422 34.1992 147.074 34.5938 146.652 34.9688C146.23 35.3438 145.711 35.6484 145.094 35.8828C144.484 36.1172 143.762 36.2344 142.926 36.2344ZM141.438 21.4453L143.711 18H146.324L143.184 21.4453H141.438Z" fill="#F292A9"/>
<path d="M4.15234 18.9375H6.34375L11.9336 32.8477L17.5117 18.9375H19.7148L12.7773 36H11.0664L4.15234 18.9375ZM3.4375 18.9375H5.37109L5.6875 29.3438V36H3.4375V18.9375ZM18.4844 18.9375H20.418V36H18.168V29.3438L18.4844 18.9375ZM26.418 23.3203V36H24.2383V23.3203H26.418ZM24.0742 19.957C24.0742 19.6055 24.1797 19.3086 24.3906 19.0664C24.6094 18.8242 24.9297 18.7031 25.3516 18.7031C25.7656 18.7031 26.082 18.8242 26.3008 19.0664C26.5273 19.3086 26.6406 19.6055 26.6406 19.957C26.6406 20.293 26.5273 20.582 26.3008 20.8242C26.082 21.0586 25.7656 21.1758 25.3516 21.1758C24.9297 21.1758 24.6094 21.0586 24.3906 20.8242C24.1797 20.582 24.0742 20.293 24.0742 19.957ZM37.375 33.832V27.3047C37.375 26.8047 37.2734 26.3711 37.0703 26.0039C36.875 25.6289 36.5781 25.3398 36.1797 25.1367C35.7812 24.9336 35.2891 24.832 34.7031 24.832C34.1562 24.832 33.6758 24.9258 33.2617 25.1133C32.8555 25.3008 32.5352 25.5469 32.3008 25.8516C32.0742 26.1562 31.9609 26.4844 31.9609 26.8359H29.793C29.793 26.3828 29.9102 25.9336 30.1445 25.4883C30.3789 25.043 30.7148 24.6406 31.1523 24.2812C31.5977 23.9141 32.1289 23.625 32.7461 23.4141C33.3711 23.1953 34.0664 23.0859 34.832 23.0859C35.7539 23.0859 36.5664 23.2422 37.2695 23.5547C37.9805 23.8672 38.5352 24.3398 38.9336 24.9727C39.3398 25.5977 39.543 26.3828 39.543 27.3281V33.2344C39.543 33.6562 39.5781 34.1055 39.6484 34.582C39.7266 35.0586 39.8398 35.4688 39.9883 35.8125V36H37.7266C37.6172 35.75 37.5312 35.418 37.4688 35.0039C37.4062 34.582 37.375 34.1914 37.375 33.832ZM37.75 28.3125L37.7734 29.8359H35.582C34.9648 29.8359 34.4141 29.8867 33.9297 29.9883C33.4453 30.082 33.0391 30.2266 32.7109 30.4219C32.3828 30.6172 32.1328 30.8633 31.9609 31.1602C31.7891 31.4492 31.7031 31.7891 31.7031 32.1797C31.7031 32.5781 31.793 32.9414 31.9727 33.2695C32.1523 33.5977 32.4219 33.8594 32.7812 34.0547C33.1484 34.2422 33.5977 34.3359 34.1289 34.3359C34.793 34.3359 35.3789 34.1953 35.8867 33.9141C36.3945 33.6328 36.7969 33.2891 37.0938 32.8828C37.3984 32.4766 37.5625 32.082 37.5859 31.6992L38.5117 32.7422C38.457 33.0703 38.3086 33.4336 38.0664 33.832C37.8242 34.2305 37.5 34.6133 37.0938 34.9805C36.6953 35.3398 36.2188 35.6406 35.6641 35.8828C35.1172 36.1172 34.5 36.2344 33.8125 36.2344C32.9531 36.2344 32.1992 36.0664 31.5508 35.7305C30.9102 35.3945 30.4102 34.9453 30.0508 34.3828C29.6992 33.8125 29.5234 33.1758 29.5234 32.4727C29.5234 31.793 29.6562 31.1953 29.9219 30.6797C30.1875 30.1562 30.5703 29.7227 31.0703 29.3789C31.5703 29.0273 32.1719 28.7617 32.875 28.582C33.5781 28.4023 34.3633 28.3125 35.2305 28.3125H37.75ZM50.7109 33.0703V23.3203H52.8906V36H50.8164L50.7109 33.0703ZM51.1211 30.3984L52.0234 30.375C52.0234 31.2188 51.9336 32 51.7539 32.7188C51.582 33.4297 51.3008 34.0469 50.9102 34.5703C50.5195 35.0938 50.0078 35.5039 49.375 35.8008C48.7422 36.0898 47.9727 36.2344 47.0664 36.2344C46.4492 36.2344 45.8828 36.1445 45.3672 35.9648C44.8594 35.7852 44.4219 35.5078 44.0547 35.1328C43.6875 34.7578 43.4023 34.2695 43.1992 33.668C43.0039 33.0664 42.9062 32.3438 42.9062 31.5V23.3203H45.0742V31.5234C45.0742 32.0938 45.1367 32.5664 45.2617 32.9414C45.3945 33.3086 45.5703 33.6016 45.7891 33.8203C46.0156 34.0312 46.2656 34.1797 46.5391 34.2656C46.8203 34.3516 47.1094 34.3945 47.4062 34.3945C48.3281 34.3945 49.0586 34.2188 49.5977 33.8672C50.1367 33.5078 50.5234 33.0273 50.7578 32.4258C51 31.8164 51.1211 31.1406 51.1211 30.3984Z" fill="#F292A9"/>
<g clip-path="url(#clip0_50_23)">
<path d="M78.5001 15H79.836C81.5626 17.9922 84.7969 20 88.5001 20C89.3594 20 90.2032 19.8906 91.0001 19.6875V20V22.5V37.5C91.0001 38.8828 89.8829 40 88.5001 40C87.1173 40 86.0001 38.8828 86.0001 37.5V26.5L75.3751 35H79.7501C81.1329 35 82.2501 36.1172 82.2501 37.5C82.2501 38.8828 81.1329 40 79.7501 40H68.5001C64.3594 40 61.0001 36.6406 61.0001 32.5V15.0391C61.0001 13.7812 60.0626 12.7109 58.8126 12.5547L58.1954 12.4766C56.8204 12.3125 55.8516 11.0625 56.0157 9.6875C56.1798 8.3125 57.4376 7.34375 58.8048 7.51562L59.4219 7.59375C63.1719 8.0625 65.9923 11.25 65.9923 15.0391V21.7031C68.6798 17.6641 73.2735 15 78.4923 15H78.5001ZM91.0001 17.0703C90.2188 17.3438 89.3751 17.5 88.5001 17.5C86.2813 17.5 84.2813 16.5312 82.9063 15C82.6173 14.6797 82.3594 14.3359 82.1329 13.9688C81.4141 12.8125 81.0001 11.4531 81.0001 10V2.5V0.9375V0.835938C81.0001 0.375 81.3673 0.0078125 81.8282 0H81.8438C82.1016 0 82.3438 0.125 82.5001 0.328125V0.335938L83.5001 1.66406L85.6251 4.5L86.0001 5H91.0001L91.3751 4.5L93.5001 1.66406L94.5001 0.335938V0.328125C94.6563 0.125 94.8985 0 95.1563 0H95.1719C95.6329 0.0078125 96.0001 0.375 96.0001 0.835938V0.9375V2.5V10C96.0001 11.3516 95.6407 12.625 95.0157 13.7188C94.1329 15.2656 92.7032 16.4688 91.0001 17.0703ZM87.2501 10C87.2501 9.3125 86.6876 8.75 86.0001 8.75C85.3126 8.75 84.7501 9.3125 84.7501 10C84.7501 10.6875 85.3126 11.25 86.0001 11.25C86.6876 11.25 87.2501 10.6875 87.2501 10ZM91.0001 11.25C91.6876 11.25 92.2501 10.6875 92.2501 10C92.2501 9.3125 91.6876 8.75 91.0001 8.75C90.3126 8.75 89.7501 9.3125 89.7501 10C89.7501 10.6875 90.3126 11.25 91.0001 11.25Z" fill="#F292A9"/>
</g>
<defs>
<clipPath id="clip0_50_23">
<rect width="40" height="40" fill="white" transform="translate(56)"/>
</clipPath>
</defs>
</svg>
